<svg xmlns="http://www.w3.org/2000/svg" viewBox="0 35 258 258" width="250" height="250">
        <g fill="#101820" fill-rule="none" stroke="none" stroke-width="1" stroke-linecap="butt" stroke-linejoin="miter"
           stroke-miterlimit="10" stroke-dasharray="" stroke-dashoffset="0" font-family="none" font-weight="none"
           font-size="none" text-anchor="none" transform="matrix(1, 0, 0, 1, -146.069611, -70.999992)">
            <g>
                <g
                        fill-rule="nonzero">
                    <path
                        d="M183.86978,234.59601c0,-50.41086 40.86608,-91.27694 91.27694,-91.27694c50.41086,0 91.27694,40.86608 91.27694,91.27694c0,50.41086 -40.86608,91.27694 -91.27694,91.27694c-50.41086,0 -91.27694,-40.86608 -91.27694,-91.27694zM275.14672,275.44681c22.56324,0 40.8508,-18.29369 40.85693,-40.85693c0,-15.02922 -12.18966,-27.23319 -27.23727,-27.23319c-15.04148,0 -27.23931,12.20396 -27.23931,27.23727c0,7.52789 6.09789,13.61966 13.61966,13.61966c7.52176,0 13.61966,-6.09177 13.61966,-13.61966h-13.61966c0,-7.52789 6.09789,-13.61966 13.61966,-13.61966c7.52176,0 13.61762,6.09177 13.61762,13.61966c0,15.04761 -12.1958,27.23727 -27.23727,27.23727c-15.04148,0 -27.23727,-12.18763 -27.23727,-27.23523c0,-22.55711 18.29369,-40.85693 40.85693,-40.85693c22.56671,0 40.84426,18.2892 40.85693,40.84263v0.0143c-0.01144,30.08214 -24.39363,54.46841 -54.47659,54.46841c-30.08295,0 -54.47332,-24.38628 -54.47659,-54.46841v-0.0143c0.00449,-41.35987 33.54619,-74.89075 74.90505,-74.89075c5.36043,0 10.5799,0.58425 15.6196,1.65675c-10.88633,-5.36655 -23.09438,-8.46555 -36.04807,-8.46555c-45.12648,0 -81.71386,36.58738 -81.71386,81.71386c0,45.12648 36.58738,81.71386 81.71386,81.71386c45.12648,0 81.71386,-36.58738 81.71386,-81.71386c0,-2.11435 -0.15934,-4.18988 -0.31868,-6.26337c-3.13781,-30.90214 -29.23313,-55.02202 -60.96671,-55.02202c-33.83567,0 -61.28539,27.43747 -61.28539,61.27927c0,22.56324 18.29369,40.85693 40.85693,40.85693z"
                        data-paper-data="{&quot;isPathIcon&quot;:true}"/>
                </g>
                <g data-paper-data="{&quot;isPrimaryText&quot;:true}" fill-rule="nonzero">
                    <path
                        d="M171.2741,196.3483l-2.95342,9.36496l-17.62817,-5.55938l-0.34746,1.10176l18.72993,5.90684l3.47461,-11.0176z"
                        data-paper-data="{&quot;glyphName&quot;:&quot;L&quot;,&quot;glyphIndex&quot;:0,&quot;firstGlyphOfWord&quot;:true,&quot;word&quot;:1}"/>
                    <path
                        d="M175.99832,185.42552l-7.08909,-3.89108l4.16901,-7.59545l-1.01273,-0.55587l-4.16901,7.59545l-7.08909,-3.89108l4.72488,-8.60818l-0.73479,-1.06223l-5.55868,10.12727l17.21636,9.44976l5.55868,-10.12727l-1.29066,-0.0495z"
                        data-paper-data="{&quot;glyphName&quot;:&quot;E&quot;,&quot;glyphIndex&quot;:1,&quot;word&quot;:1}"/>
                    <path
                        d="M196.98114,157.9225l0.81032,-0.94111l-20.56644,-6.65583l9.63653,19.34983l0.81032,-0.94111l-2.22035,-4.50341l6.7464,-7.83526zM184.89643,163.10502l-5.41712,-10.83846l11.5228,3.74733z"
                        data-paper-data="{&quot;glyphName&quot;:&quot;A&quot;,&quot;glyphIndex&quot;:2,&quot;word&quot;:1}"/>
                    <path
                        d="M207.92247,132.13804c-2.1757,-2.95296 -6.33516,-3.58335 -9.28813,-1.40765l-5.34789,3.94024l11.6494,15.81115l0.93007,-0.68526l-3.76892,-5.11537l4.41782,-3.25498c0.13951,-0.10279 0.27902,-0.20558 0.42465,-0.34875l7.52958,2.38046l1.16258,-0.85657l-7.82939,-2.44655c1.79286,-2.28955 1.91903,-5.57528 0.12023,-8.01671zM194.90178,134.91543l4.41782,-3.25498c2.44143,-1.7988 5.874,-1.27859 7.6728,1.16284c1.7988,2.44143 1.27859,5.874 -1.16284,7.6728l-4.41782,3.25498z"
                        data-paper-data="{&quot;glyphName&quot;:&quot;R&quot;,&quot;glyphIndex&quot;:3,&quot;word&quot;:1}"/>
                    <path
                        d="M227.35115,114.63722l6.70722,14.93908l-17.8915,-10.23425l8.16223,18.17984l1.0539,-0.47317l-6.70722,-14.93908l17.8915,10.23425l-8.16223,-18.17984z"
                        data-paper-data="{&quot;glyphName&quot;:&quot;N&quot;,&quot;glyphIndex&quot;:4,&quot;lastGlyphOfWord&quot;:true,&quot;word&quot;:1}"/>
                    <path
                        d="M271.7291,112.10036c-0.29966,-3.65566 -3.50751,-6.37746 -7.16317,-6.07781l-6.62049,0.54268l1.60446,19.57362l1.15139,-0.09438l-0.51909,-6.33264l5.4691,-0.4483c0.17271,-0.01416 0.34542,-0.02831 0.54455,-0.07362l5.15579,5.98155l1.43924,-0.11797l-5.37616,-6.19531c2.72841,-1.00606 4.56213,-3.73542 4.31439,-6.75782zM259.1912,107.62224l5.4691,-0.4483c3.0224,-0.24775 5.66966,1.9984 5.9174,5.0208c0.24775,3.0224 -1.9984,5.66966 -5.0208,5.9174l-5.4691,0.4483z"
                        data-paper-data="{&quot;glyphName&quot;:&quot;R&quot;,&quot;glyphIndex&quot;:5,&quot;firstGlyphOfWord&quot;:true,&quot;word&quot;:2}"/>
                    <path
                        d="M295.11255,107.09387c-5.50732,-0.86017 -10.68709,2.92015 -11.54726,8.42746c-0.86017,5.50732 2.92015,10.68709 8.42746,11.54726c5.50732,0.86017 10.68709,-2.92015 11.54726,-8.42746c0.86017,-5.50732 -2.92015,-10.68709 -8.42746,-11.54726zM292.17103,125.92719c-4.87954,-0.76212 -8.22645,-5.34803 -7.46433,-10.22758c0.76212,-4.87954 5.34803,-8.22645 10.22758,-7.46433c4.87954,0.76212 8.22645,5.34803 7.46433,10.22758c-0.76212,4.87954 -5.34803,8.22645 -10.22758,7.46433z"
                        data-paper-data="{&quot;glyphName&quot;:&quot;O&quot;,&quot;glyphIndex&quot;:6,&quot;word&quot;:2}"/>
                    <path
                        d="M329.87186,117.63785l-5.11701,12.26041c-1.16801,2.79857 -4.37906,4.11855 -7.17763,2.95054c-2.79857,-1.16801 -4.11855,-4.37906 -2.95054,-7.17763l5.11701,-12.26041l-1.06612,-0.44496l-5.11701,12.26041c-1.41274,3.38494 0.18676,7.27597 3.5717,8.68871c3.38494,1.41274 7.27597,-0.18676 8.68871,-3.5717l5.11701,-12.26041z"
                        data-paper-data="{&quot;glyphName&quot;:&quot;U&quot;,&quot;glyphIndex&quot;:7,&quot;word&quot;:2}"/>
                    <path
                        d="M349.4258,129.24424l-5.6198,-4.05754l-11.49636,15.92277l5.6198,4.05754c4.40218,3.17841 10.53116,2.18897 13.70957,-2.21321c3.17841,-4.40218 2.18897,-10.53116 -2.21321,-13.70957zM338.6057,144.23038l-4.68317,-3.38128l10.14385,-14.0495l4.68317,3.38128c3.88703,2.80646 4.75929,8.20965 1.95283,12.09668c-2.80646,3.88703 -8.20965,4.75929 -12.09668,1.95283z"
                        data-paper-data="{&quot;glyphName&quot;:&quot;D&quot;,&quot;glyphIndex&quot;:8,&quot;word&quot;:2}"/>
                    <path
                        d="M375.7406,153.63344l-12.30538,10.80467l4.51895,-20.11032l-14.9748,13.14853l0.76223,0.8681l12.30538,-10.80467l-4.51895,20.11032l14.9748,-13.14853z"
                        data-paper-data="{&quot;glyphName&quot;:&quot;N&quot;,&quot;glyphIndex&quot;:9,&quot;word&quot;:2}"/>
                    <path
                        d="M369.29255,176.41532l7.05101,-3.95967l4.2425,7.55465l1.00729,-0.56567l-4.2425,-7.55465l7.05101,-3.95967l4.80817,8.56194l1.29012,-0.06202l-5.65667,-10.07287l-17.12387,9.61634l5.65667,10.07287l0.72445,-1.06931z"
                        data-paper-data="{&quot;glyphName&quot;:&quot;E&quot;,&quot;glyphIndex&quot;:10,&quot;word&quot;:2}"/>
                    <path
                        d="M399.93039,201.19489l-4.08754,-12.64095l-0.92149,0.90504l1.68833,5.22126l-17.5874,5.68702l0.35544,1.09921l17.5874,-5.68702l1.68833,5.22126z"
                        data-paper-data="{&quot;glyphName&quot;:&quot;T&quot;,&quot;glyphIndex&quot;:11,&quot;lastGlyphOfWord&quot;:true,&quot;word&quot;:2}"/>
                </g>
                <g data-paper-data="{&quot;isMirroredPrimaryText&quot;:true}" fill-rule="nonzero">
                    <path
                        d="M154.47225,278.1425l-2.95342,-9.36496l17.62817,-5.55938l-0.34746,-1.10176l-18.72993,5.90684l3.47461,11.0176z"
                        data-paper-data="{&quot;glyphName&quot;:&quot;L&quot;,&quot;glyphIndex&quot;:0,&quot;firstGlyphOfWord&quot;:true,&quot;word&quot;:1}"/>
                    <path
                        d="M160.55424,292.24349l7.08909,-3.89108l4.16901,7.59545l1.01273,-0.55587l-4.16901,-7.59545l7.08909,-3.89108l4.72488,8.60818l1.29066,-0.0495l-5.55868,-10.12727l-17.21636,9.44976l5.55868,10.12727l0.73479,-1.06223z"
                        data-paper-data="{&quot;glyphName&quot;:&quot;E&quot;,&quot;glyphIndex&quot;:1,&quot;word&quot;:1}"/>
                    <path
                        d="M181.87966,324.27235l0.81032,0.94111l9.63653,-19.34983l-20.56644,6.65583l0.81032,0.94111l4.78323,-1.52689l6.7464,7.83526zM178.54943,311.55196l11.5228,-3.74733l-5.41712,10.83846z"
                        data-paper-data="{&quot;glyphName&quot;:&quot;A&quot;,&quot;glyphIndex&quot;:2,&quot;word&quot;:1}"/>
                    <path
                        d="M211.52008,332.17113c2.1757,-2.95296 1.54531,-7.11243 -1.40765,-9.28813l-5.34789,-3.94024l-11.6494,15.81115l0.93007,0.68526l3.76892,-5.11537l4.41782,3.25498c0.13951,0.10279 0.27902,0.20558 0.45891,0.30225l-0.04253,7.89679l1.16258,0.85657l0.01682,-8.20272c2.71796,1.03396 5.89353,0.18089 7.69234,-2.26054zM205.00935,320.55809l4.41782,3.25498c2.44143,1.7988 2.96165,5.23137 1.16284,7.6728c-1.7988,2.44143 -5.23137,2.96165 -7.6728,1.16284l-4.41782,-3.25498z"
                        data-paper-data="{&quot;glyphName&quot;:&quot;R&quot;,&quot;glyphIndex&quot;:3,&quot;word&quot;:1}"/>
                    <path
                        d="M235.27679,336.90191l-6.70722,14.93908l-4.24047,-20.17087l-8.16223,18.17984l1.0539,0.47317l6.70722,-14.93908l4.24047,20.17087l8.16223,-18.17984z"
                        data-paper-data="{&quot;glyphName&quot;:&quot;N&quot;,&quot;glyphIndex&quot;:4,&quot;lastGlyphOfWord&quot;:true,&quot;word&quot;:1}"/>
                    <path
                        d="M272.22459,351.04687c0.29966,-3.65566 -2.42214,-6.86352 -6.07781,-7.16317l-6.62049,-0.54268l-1.60446,19.57362l1.15139,0.09438l0.51909,-6.33264l5.4691,0.4483c0.17271,0.01416 0.34542,0.02831 0.54927,0.01605l4.11289,6.74131l1.43924,0.11797l-4.29551,-6.9881c2.85583,-0.54832 5.10954,-2.94263 5.35728,-5.96503zM260.58331,344.58678l5.4691,0.4483c3.0224,0.24775 5.26854,2.89501 5.0208,5.9174c-0.24775,3.0224 -2.89501,5.26854 -5.9174,5.0208l-5.4691,-0.4483z"
                        data-paper-data="{&quot;glyphName&quot;:&quot;R&quot;,&quot;glyphIndex&quot;:5,&quot;firstGlyphOfWord&quot;:true,&quot;word&quot;:2}"/>
                    <path
                        d="M292.03732,342.40877c-5.50732,0.86017 -9.28764,6.03994 -8.42746,11.54726c0.86017,5.50732 6.03994,9.28764 11.54726,8.42746c5.50732,-0.86017 9.28764,-6.03994 8.42746,-11.54726c-0.86017,-5.50732 -6.03994,-9.28764 -11.54726,-8.42746zM294.97884,361.24209c-4.87954,0.76212 -9.46545,-2.58479 -10.22758,-7.46433c-0.76212,-4.87954 2.58479,-9.46545 7.46433,-10.22758c4.87954,-0.76212 9.46545,2.58479 10.22758,7.46433c0.76212,4.87954 -2.58479,9.46545 -7.46433,10.22758z"
                        data-paper-data="{&quot;glyphName&quot;:&quot;O&quot;,&quot;glyphIndex&quot;:6,&quot;word&quot;:2}"/>
                    <path
                        d="M322.41882,333.69661l5.11701,12.26041c1.16801,2.79857 -0.15196,6.00962 -2.95054,7.17763c-2.79857,1.16801 -6.00962,-0.15196 -7.17763,-2.95054l-5.11701,-12.26041l-1.06612,0.44496l5.11701,12.26041c1.41274,3.38494 5.30377,4.98444 8.68871,3.5717c3.38494,-1.41274 4.98444,-5.30377 3.5717,-8.68871l-5.11701,-12.26041z"
                        data-paper-data="{&quot;glyphName&quot;:&quot;U&quot;,&quot;glyphIndex&quot;:7,&quot;word&quot;:2}"/>
                    <path
                        d="M338.09851,324.25917l-5.6198,4.05754l11.49636,15.92277l5.6198,-4.05754c4.40218,-3.17841 5.39161,-9.30739 2.21321,-13.70957c-3.17841,-4.40218 -9.30739,-5.39161 -13.70957,-2.21321zM348.91861,339.2453l-4.68317,3.38128l-10.14385,-14.0495l4.68317,-3.38128c3.88703,-2.80646 9.29021,-1.9342 12.09668,1.95283c2.80646,3.88703 1.9342,9.29021 -1.95283,12.09668z"
                        data-paper-data="{&quot;glyphName&quot;:&quot;D&quot;,&quot;glyphIndex&quot;:8,&quot;word&quot;:2}"/>
                    <path
                        d="M361.19985,302.79116l12.30538,10.80467l-20.52586,-1.88013l14.9748,13.14853l0.76223,-0.8681l-12.30538,-10.80467l20.52586,1.88013l-14.9748,-13.14853z"
                        data-paper-data="{&quot;glyphName&quot;:&quot;N&quot;,&quot;glyphIndex&quot;:9,&quot;word&quot;:2}"/>
                    <path
                        d="M384.65367,301.40312l-7.05101,-3.95967l4.2425,-7.55465l-1.00729,-0.56567l-4.2425,7.55465l-7.05101,-3.95967l4.80817,-8.56194l-0.72445,-1.06931l-5.65667,10.07287l17.12387,9.61634l5.65667,-10.07287l-1.29012,-0.06202z"
                        data-paper-data="{&quot;glyphName&quot;:&quot;E&quot;,&quot;glyphIndex&quot;:10,&quot;word&quot;:2}"/>
                    <path
                        d="M381.51858,262.04354l-4.08754,12.64095l1.27693,-0.19417l1.68833,-5.22126l17.5874,5.68702l0.35544,-1.09921l-17.5874,-5.68702l1.68833,-5.22126z"
                        data-paper-data="{&quot;glyphName&quot;:&quot;T&quot;,&quot;glyphIndex&quot;:11,&quot;lastGlyphOfWord&quot;:true,&quot;word&quot;:2}"/>
                </g>
                <g data-paper-data="{&quot;isContainerElementsWrapper&quot;:true}" fill-rule="evenodd">
                    <path
                        d="M155.29485,212.30892c-1.3428,7.27854 -2.01425,14.7078 -2.01425,22.28755c0,7.58443 0.67222,15.01799 2.01665,22.30067h3.00643c-1.37912,-7.27865 -2.06868,-14.71221 -2.06868,-22.30067c0,-7.58405 0.68868,-15.01323 2.06605,-22.28755zM391.99262,212.30892h3.00758c1.34253,7.2785 2.0138,14.70768 2.0138,22.28755c0,7.5842 -0.67203,15.0178 -2.01722,22.30067h-3.00643c1.37904,-7.27888 2.06856,-14.71244 2.06856,-22.30067c0,-7.58409 -0.68914,-15.01323 -2.06628,-22.28755z"
                        data-paper-data="{&quot;isJbensonConnector&quot;:true}"/>
                </g>
            </g>
        </g>
    </svg>